<?xml version="1.0" standalone="no"?>
<!DOCTYPE svg PUBLIC "-//W3C//DTD SVG 20010904//EN"
 "http://www.w3.org/TR/2001/REC-SVG-20010904/DTD/svg10.dtd">
<svg version="1.0" xmlns="http://www.w3.org/2000/svg"
 width="180.000000pt" height="180.000000pt" viewBox="0 0 180.000000 180.000000"
 preserveAspectRatio="xMidYMid meet">
<metadata>
Created by potrace 1.11, written by Peter Selinger 2001-2013
</metadata>
<g transform="translate(0.000000,180.000000) scale(0.100000,-0.100000)"
fill="#000000" stroke="none">
<path d="M0 895 l0 -895 900 0 900 0 0 895 0 895 -900 0 -900 0 0 -895z m767
344 c42 -16 72 -48 84 -91 18 -68 0 -101 -127 -223 -63 -61 -114 -116 -114
-123 0 -9 33 -12 125 -12 l125 0 0 -25 0 -25 -160 0 -160 0 0 28 c0 43 54 115
136 184 86 70 114 111 114 162 0 64 -57 98 -125 76 -27 -9 -41 -21 -51 -46
-13 -30 -18 -34 -42 -28 -37 9 -36 9 -22 44 30 72 135 110 217 79z m375 -221
l3 -223 63 -3 c58 -3 62 -4 62 -27 l0 -25 -160 0 -160 0 0 25 c0 24 2 25 65
25 l65 0 0 190 c0 105 -3 190 -6 190 -4 0 -28 -16 -55 -36 l-49 -36 0 30 c0
26 9 37 57 71 34 24 69 41 85 41 l28 0 2 -222z m-351 -509 c29 -29 17 -35 -27
-14 -45 21 -89 11 -89 -20 0 -15 13 -24 55 -37 85 -27 110 -76 57 -113 -40
-28 -138 -13 -152 23 -8 21 3 28 23 14 56 -40 117 -35 117 8 0 21 -8 27 -50
38 -60 17 -85 37 -85 68 0 52 108 76 151 33z m89 -92 c0 -81 26 -110 64 -71
11 10 16 34 16 75 0 46 3 59 15 59 12 0 15 -16 15 -85 0 -69 -3 -85 -15 -85
-8 0 -15 5 -15 10 0 7 -6 7 -19 0 -28 -14 -57 -12 -75 6 -22 22 -23 154 -1
154 12 0 15 -14 15 -63z m180 51 c0 -9 3 -9 12 0 20 20 65 14 82 -10 22 -31
22 -148 1 -148 -12 0 -15 13 -15 56 0 84 -26 116 -64 78 -11 -10 -16 -34 -16
-75 0 -46 -3 -59 -15 -59 -12 0 -15 16 -15 85 0 69 3 85 15 85 8 0 15 -5 15
-12z"/>
</g>
</svg>
